<?xml version="1.0" encoding="UTF-8" standalone="no"?>
<svg
   width="24"
   height="24"
   viewBox="0 0 24 24"
   fill="none"
   stroke="currentColor"
   stroke-width="2"
   stroke-linecap="round"
   stroke-linejoin="round"
   class="lucide lucide-grid2x2-check-icon lucide-grid-2x2-check"
   version="1.1"
   id="svg2"
   xml:space="preserve"
   sodipodi:docname="overdone.svg"
   inkscape:version="1.4.2 (ebf0e940, 2025-05-08)"
   xmlns:inkscape="http://www.inkscape.org/namespaces/inkscape"
   xmlns:sodipodi="http://sodipodi.sourceforge.net/DTD/sodipodi-0.dtd"
   xmlns="http://www.w3.org/2000/svg"
   xmlns:svg="http://www.w3.org/2000/svg"><sodipodi:namedview
     id="namedview1"
     pagecolor="#ffffff"
     bordercolor="#000000"
     borderopacity="0.25"
     inkscape:showpageshadow="2"
     inkscape:pageopacity="0.0"
     inkscape:pagecheckerboard="0"
     inkscape:deskcolor="#d1d1d1"
     inkscape:zoom="29.330971"
     inkscape:cx="11.762311"
     inkscape:cy="12.904448"
     inkscape:window-width="1752"
     inkscape:window-height="1102"
     inkscape:window-x="54"
     inkscape:window-y="39"
     inkscape:window-maximized="0"
     inkscape:current-layer="svg2" /><defs
     id="defs2" /><g
     id="g14"
     transform="translate(1,-0.99975938)"><path
       d="M 5,4 C 3.8954305,4 3,4.8954305 3,6 v 1 c 0,1.1045695 0.8954305,2 2,2 h 5 c 1.299998,-2.006e-4 2.469187,0.6234865 3.203243,1.60298 0.676337,0.902474 0.111779,2.546842 -0.694634,3.353255 L 10.960944,15.5039 a 0.65187298,0.65187298 4.431335e-7 0 1 -0.921888,0 L 7.2675781,12.732422 C 6.8559655,12.321067 6.3137458,12.06619 5.734375,12.011719 c -0.104508,-0.0099 -0.2095336,-0.01314 -0.3144531,-0.0098 -0.6348723,0.02027 -1.238224,0.281443 -1.6875,0.730469 -0.5263913,0.526684 -0.7906028,1.260604 -0.7207031,2.001953 0.054471,0.579371 0.3093484,1.12159 0.7207031,1.533203 L 7.4648437,20 8.7324219,21.267578 c 0.9763246,0.975921 2.5588311,0.975921 3.5351561,0 l 2.105469,-2.105469 3.057779,-3.057779 A 5.3574943,5.3574943 112.5 0 0 19,12.316009 V 12 C 19,10.683574 18.682459,9.4409894 18.119141,8.3457031 16.791811,5.7649149 14.101852,4 11,4 Z"
       style="baseline-shift:baseline;display:inline;overflow:visible;opacity:1;vector-effect:none;fill:#ffffff;fill-opacity:1;stroke:none;stroke-linecap:butt;stroke-linejoin:miter;enable-background:accumulate;stop-color:#000000;stop-opacity:1"
       id="path3" /></g></svg>
